<svg width="16" height="16" viewBox="0 0 16 16" fill="none" xmlns="http://www.w3.org/2000/svg">
<g clip-path="url(#clip0_145_269)">
<path d="M16 5.00774C16 4.45549 15.5523 4.00774 15 4.00774H13.293C13.7348 3.57199 14.0175 3.00076 14.0175 2.29724C14.0175 1.43099 13.52 0.48999 12.1235 0.48999C10.286 0.48999 8.75103 2.44649 8.02978 3.54324C7.30803 2.44674 5.72603 0.49024 3.88878 0.49024C2.49228 0.49024 1.99478 1.43124 1.99478 2.29749C1.99478 3.00074 2.28528 3.57224 2.73603 4.00799H1.00003C0.44778 4.00799 3.05176e-05 4.45574 3.05176e-05 5.00799V8.00124H1.00878V14.51C1.00878 15.0622 1.45651 15.51 2.00878 15.51H14.0038C14.556 15.51 15.0038 15.0622 15.0038 14.51V8.00099H16V5.00774H16ZM12.1235 1.49024C12.7418 1.49024 13.0175 1.75001 13.0175 2.29751C13.0175 3.40826 11.7778 4.00749 10.6118 4.00749H8.91903C9.62951 2.95224 10.88 1.49024 12.1235 1.49024ZM3.88876 1.49026C5.13251 1.49026 6.43025 2.95226 7.14075 4.00726H5.4475C4.2815 4.00726 2.99475 3.39251 2.99475 2.28176C2.99475 1.73451 3.2705 1.49026 3.88876 1.49026ZM15 7.00099H8.50001V5.00774H15V7.00099ZM1.00001 5.00774H7.50001V7.00099H1.00001V5.00774ZM2.00876 8.00099H7.50001V14.5097H2.00876V8.00099ZM14.004 14.5097H8.50001V8.00099H14.004V14.5097Z" fill="#555555"/>
</g>
<defs>
<clipPath id="clip0_145_269">
<rect width="16" height="16" fill="white"/>
</clipPath>
</defs>
</svg>
