<svg width="20" height="20" viewBox="0 0 20 20" fill="none" xmlns="http://www.w3.org/2000/svg">
<path d="M18.5661 12.3862L19.4254 11.9429L18.4754 10.3383L17.6161 10.7817C16.9571 11.122 16.3733 11.5758 15.8955 12.1192L11.9643 10L15.896 7.88083C16.3737 8.42418 16.9576 8.87803 17.6165 9.21833L18.4759 9.66167L19.4259 8.05708L18.5665 7.61375C18.2214 7.43588 17.9066 7.21121 17.6321 6.94708L20 5.66875L19.0179 4.08333L16.6518 5.3575C16.5432 5.00339 16.4918 4.63617 16.4991 4.26792L16.5174 3.35125L14.5531 3.31708L14.5348 4.23375C14.521 4.93589 14.6496 5.63414 14.9138 6.29167L10.9821 8.41208V4.17417C11.725 4.05948 12.4379 3.81447 13.083 3.45208L13.9241 2.97917L12.9103 1.40875L12.0692 1.88167C11.7311 2.0714 11.3648 2.21336 10.9821 2.30292V0H9.01786V2.30292C8.63521 2.21336 8.26889 2.0714 7.9308 1.88167L7.08973 1.40875L6.07589 2.97917L6.91696 3.45208C7.56211 3.81447 8.27498 4.05948 9.01786 4.17417V8.41208L5.08616 6.29167C5.35126 5.63373 5.48047 4.93489 5.46696 4.23208L5.44866 3.31542L3.48438 3.34958L3.50268 4.26625C3.51 4.6345 3.45854 5.00172 3.35 5.35583L0.982143 4.08333L0 5.67083L2.3683 6.9475C2.09389 7.21163 1.779 7.4363 1.43393 7.61417L0.574554 8.05708L1.52455 9.66167L2.38393 9.21833C3.04288 8.87803 3.62671 8.42418 4.10446 7.88083L8.03571 10L4.10402 12.1192C3.62626 11.5758 3.04243 11.122 2.38348 10.7817L1.52455 10.3383L0.574554 11.9429L1.43393 12.3862C1.779 12.5641 2.09389 12.7888 2.3683 13.0529L0 14.3333L0.982143 15.9208L3.35045 14.6446C3.45899 14.9987 3.51044 15.3659 3.50313 15.7342L3.48482 16.6508L5.44911 16.685L5.46741 15.7683C5.48083 15.0654 5.35147 14.3664 5.08616 13.7083L9.01786 11.5879V15.8258C8.27498 15.9405 7.56211 16.1855 6.91696 16.5479L6.07589 17.0208L7.08973 18.5913L7.9308 18.1183C8.26889 17.9286 8.63521 17.7866 9.01786 17.6971V20H10.9821V17.6971C11.3648 17.7866 11.7311 17.9286 12.0692 18.1183L12.9103 18.5913L13.9241 17.0208L13.083 16.5479C12.4379 16.1855 11.725 15.9405 10.9821 15.8258V11.5879L14.9138 13.7083C14.6487 14.3663 14.5195 15.0651 14.533 15.7679L14.5513 16.6846L16.5156 16.6504L16.4973 15.7337C16.4904 15.3649 16.5425 14.9971 16.6518 14.6425L19.0179 15.9187L20 14.3333L17.6339 13.0546C17.9075 12.79 18.2217 12.5648 18.5661 12.3862Z" fill="#1A64B1"/>
</svg>
